<svg width="53" height="53" viewBox="0 0 53 53" fill="none" xmlns="http://www.w3.org/2000/svg">
<circle cx="26.5" cy="26.5" r="26.5" fill="#C90606"/>
<path d="M17.4855 21.4155H11.8115C11.6716 21.4155 11.5375 21.471 11.4386 21.5699C11.3397 21.6688 11.2842 21.8029 11.2842 21.9428V25.8344C11.2842 25.9743 11.3397 26.1084 11.4386 26.2073C11.5375 26.3062 11.6716 26.3617 11.8115 26.3617H17.4855C17.6253 26.3617 17.7594 26.3062 17.8583 26.2073C17.9572 26.1084 18.0128 25.9743 18.0128 25.8344V21.9428C18.0128 21.8029 17.9572 21.6688 17.8583 21.5699C17.7594 21.471 17.6253 21.4155 17.4855 21.4155ZM16.9581 25.3071H12.3388V22.4701H16.9581V25.3071Z" fill="white"/>
<path d="M25.3888 21.4155H19.7148C19.575 21.4155 19.4408 21.471 19.3419 21.5699C19.2431 21.6688 19.1875 21.8029 19.1875 21.9428V25.8344C19.1875 25.9743 19.2431 26.1084 19.3419 26.2073C19.4408 26.3062 19.575 26.3617 19.7148 26.3617H25.3888C25.5286 26.3617 25.6628 26.3062 25.7617 26.2073C25.8605 26.1084 25.9161 25.9743 25.9161 25.8344V21.9428C25.9161 21.8029 25.8605 21.6688 25.7617 21.5699C25.6628 21.471 25.5286 21.4155 25.3888 21.4155ZM24.8615 25.3071H20.2421V22.4701H24.8615V25.3071Z" fill="white"/>
<path d="M42.6712 26.5867H41.9153L40.0873 23.3489H40.5619C40.8457 23.3751 41.1315 23.3306 41.394 23.2196C41.6565 23.1086 41.8875 22.9345 42.0665 22.7126C42.2052 22.4884 42.2928 22.2365 42.3232 21.9746C42.3536 21.7128 42.3259 21.4474 42.2423 21.1975C42.2423 21.1553 41.0083 17 38.3752 17H9.52732C9.38747 17 9.25334 17.0556 9.15445 17.1544C9.05556 17.2533 9 17.3875 9 17.5273C9 17.6672 9.05556 17.8013 9.15445 17.9002C9.25334 17.9991 9.38747 18.0546 9.52732 18.0546H10.5363V18.7577H9.52732C9.38747 18.7577 9.25334 18.8133 9.15445 18.9122C9.05556 19.0111 9 19.1452 9 19.2851V32.1517C9 32.2915 9.05556 32.4256 9.15445 32.5245C9.25334 32.6234 9.38747 32.679 9.52732 32.679H12.2483C12.3206 33.3469 12.6371 33.9646 13.1371 34.4133C13.637 34.8621 14.2851 35.1103 14.957 35.1103C15.6288 35.1103 16.2769 34.8621 16.7769 34.4133C17.2768 33.9646 17.5933 33.3469 17.6656 32.679H35.7246C35.7969 33.3469 36.1134 33.9646 36.6133 34.4133C37.1133 34.8621 37.7614 35.1103 38.4333 35.1103C39.1051 35.1103 39.7532 34.8621 40.2532 34.4133C40.7531 33.9646 41.0696 33.3469 41.1419 32.679H43.4727C43.6125 32.679 43.7467 32.6234 43.8455 32.5245C43.9444 32.4256 44 32.2915 44 32.1517V27.9085C44.0005 27.7342 43.9664 27.5615 43.8997 27.4005C43.833 27.2394 43.735 27.0932 43.6114 26.9703C43.4878 26.8474 43.3411 26.7502 43.1797 26.6843C43.0183 26.6185 42.8455 26.5853 42.6712 26.5867ZM40.0908 32.3872C40.0908 32.7175 39.9929 33.0403 39.8094 33.3149C39.6259 33.5895 39.3651 33.8036 39.06 33.9299C38.7548 34.0563 38.4191 34.0894 38.0952 34.025C37.7713 33.9605 37.4737 33.8015 37.2402 33.568C37.0067 33.3344 36.8476 33.0369 36.7832 32.713C36.7188 32.3891 36.7518 32.0533 36.8782 31.7482C37.0046 31.4431 37.2186 31.1823 37.4932 30.9988C37.7678 30.8153 38.0907 30.7174 38.4209 30.7174C38.641 30.7164 38.8591 30.7589 39.0627 30.8424C39.2663 30.9258 39.4514 31.0486 39.6075 31.2037C39.7636 31.3588 39.8875 31.5432 39.9723 31.7463C40.057 31.9494 40.1009 32.1672 40.1013 32.3872H40.0908ZM38.878 23.3489L40.7025 26.5867H36.2343L35.9531 23.3489H38.878ZM42.9454 27.919V31.6173H41.0435C40.8786 31.0522 40.5348 30.5559 40.0639 30.2027C39.5929 29.8496 39.0201 29.6587 38.4315 29.6587C37.8428 29.6587 37.2701 29.8496 36.7991 30.2027C36.3282 30.5559 35.9844 31.0522 35.8195 31.6173H34.3887V23.3489H34.8949L35.2254 27.1632C35.236 27.2947 35.2959 27.4173 35.393 27.5066C35.4901 27.5959 35.6173 27.6453 35.7492 27.6448H42.6712C42.7065 27.6439 42.7417 27.65 42.7747 27.6628C42.8077 27.6756 42.8379 27.6948 42.8634 27.7193C42.8889 27.7439 42.9093 27.7732 42.9234 27.8057C42.9374 27.8382 42.9449 27.8731 42.9454 27.9085V27.919ZM15.7884 18.7788V18.0757H18.9312V18.7788H15.7884ZM19.9858 18.0757H23.1287V18.7788H19.9858V18.0757ZM24.1833 18.0757H25.5262L24.5665 18.7788H24.1833V18.0757ZM11.5909 18.0757H14.7337V18.7788H11.5909V18.0757ZM16.6286 32.3872C16.6286 32.7175 16.5306 33.0403 16.3471 33.3149C16.1637 33.5895 15.9029 33.8036 15.5977 33.9299C15.2926 34.0563 14.9569 34.0894 14.6329 34.025C14.309 33.9605 14.0115 33.8015 13.778 33.568C13.5444 33.3344 13.3854 33.0369 13.321 32.713C13.2565 32.3891 13.2896 32.0533 13.416 31.7482C13.5424 31.4431 13.7564 31.1823 14.031 30.9988C14.3056 30.8153 14.6285 30.7174 14.9587 30.7174C15.4013 30.7183 15.8255 30.8945 16.1385 31.2075C16.4514 31.5204 16.6276 31.9446 16.6286 32.3872ZM19.9612 31.3572V29.4623H21.8561V31.3572H19.9612ZM28.1698 31.6173V22.4771H31.3584V31.6173H28.1698ZM33.3341 22.8286V31.6173H32.413V21.9638C32.413 21.824 32.3575 21.6899 32.2586 21.591C32.1597 21.4921 32.0255 21.4365 31.8857 21.4365H27.6425C27.5027 21.4365 27.3685 21.4921 27.2697 21.591C27.1708 21.6899 27.1152 21.824 27.1152 21.9638V31.6173H22.8966V28.921C22.8966 28.7811 22.8411 28.647 22.7422 28.5481C22.6433 28.4492 22.5092 28.3936 22.3693 28.3936H19.4339C19.2941 28.3936 19.1599 28.4492 19.061 28.5481C18.9621 28.647 18.9066 28.7811 18.9066 28.921V31.6033H17.5707C17.4058 31.0382 17.0621 30.5418 16.5911 30.1887C16.1201 29.8355 15.5474 29.6446 14.9587 29.6446C14.3701 29.6446 13.7973 29.8355 13.3263 30.1887C12.8554 30.5418 12.5117 31.0382 12.3467 31.6033H10.0546V19.8053H24.7423C24.8531 19.8056 24.9613 19.7712 25.0516 19.7069L27.3296 18.0546H38.3823C39.7885 18.0546 40.9029 20.3678 41.2333 21.5103C41.2995 21.7039 41.2882 21.9156 41.2017 22.1009C41.0822 22.2697 40.7447 22.2943 40.5584 22.2943H33.879C33.8083 22.2919 33.7378 22.3038 33.6718 22.3293C33.6057 22.3547 33.5455 22.3932 33.4947 22.4424C33.4438 22.4916 33.4034 22.5505 33.3758 22.6157C33.3482 22.6808 33.334 22.7509 33.3341 22.8216V22.8286Z" fill="white"/>
<path d="M38.9591 20.2905C38.9591 20.1506 38.9036 20.0165 38.8047 19.9176C38.7058 19.8187 38.5717 19.7632 38.4318 19.7632H33.6894C33.5496 19.7632 33.4155 19.8187 33.3166 19.9176C33.2177 20.0165 33.1621 20.1506 33.1621 20.2905C33.1621 20.4304 33.2177 20.5645 33.3166 20.6634C33.4155 20.7623 33.5496 20.8178 33.6894 20.8178H38.4318C38.5717 20.8178 38.7058 20.7623 38.8047 20.6634C38.9036 20.5645 38.9591 20.4304 38.9591 20.2905Z" fill="white"/>
</svg>
