<svg width="54" height="60" viewBox="0 0 54 60" fill="none" xmlns="http://www.w3.org/2000/svg">
<path d="M27 22C24.2311 22 21.5243 22.8211 19.222 24.3594C16.9197 25.8978 15.1253 28.0843 14.0657 30.6424C13.0061 33.2006 12.7288 36.0155 13.269 38.7313C13.8092 41.447 15.1426 43.9416 17.1005 45.8995C19.0584 47.8574 21.553 49.1908 24.2687 49.731C26.9845 50.2712 29.7994 49.9939 32.3576 48.9343C34.9157 47.8747 37.1022 46.0803 38.6406 43.778C40.1789 41.4757 41 38.7689 41 36C41 32.287 39.525 28.726 36.8995 26.1005C34.274 23.475 30.713 22 27 22ZM27 44C25.4178 44 23.871 43.5308 22.5554 42.6518C21.2399 41.7727 20.2145 40.5233 19.609 39.0615C19.0035 37.5997 18.845 35.9911 19.1537 34.4393C19.4624 32.8874 20.2243 31.462 21.3432 30.3431C22.462 29.2243 23.8874 28.4624 25.4393 28.1537C26.9911 27.845 28.5997 28.0035 30.0615 28.609C31.5233 29.2145 32.7727 30.2398 33.6518 31.5554C34.5308 32.871 35 34.4177 35 36C35 38.1217 34.1572 40.1566 32.6569 41.6569C31.1566 43.1571 29.1217 44 27 44Z" fill="#C90606"/>
<path d="M28.5204 36.53V32.78C28.5204 32.5148 28.4151 32.2604 28.2276 32.0729C28.04 31.8854 27.7857 31.78 27.5204 31.78C27.2552 31.78 27.0009 31.8854 26.8133 32.0729C26.6258 32.2604 26.5204 32.5148 26.5204 32.78V36.2L24.8104 37.91C24.7167 38.003 24.6423 38.1136 24.5916 38.2354C24.5408 38.3573 24.5146 38.488 24.5146 38.62C24.5146 38.752 24.5408 38.8827 24.5916 39.0046C24.6423 39.1264 24.7167 39.237 24.8104 39.33C24.9978 39.5163 25.2513 39.6208 25.5154 39.6208C25.7796 39.6208 26.0331 39.5163 26.2204 39.33L28.2204 37.33C28.4195 37.1118 28.5269 36.8253 28.5204 36.53Z" fill="#C90606"/>
<path d="M49 4H46V3.5C46 2.57174 45.6312 1.6815 44.9749 1.02513C44.3185 0.368749 43.4283 0 42.5 0C41.5717 0 40.6815 0.368749 40.0251 1.02513C39.3688 1.6815 39 2.57174 39 3.5V4H30.5V3.5C30.5 2.57174 30.1313 1.6815 29.4749 1.02513C28.8185 0.368749 27.9283 0 27 0C26.0717 0 25.1815 0.368749 24.5251 1.02513C23.8687 1.6815 23.5 2.57174 23.5 3.5V4H15V3.5C15 2.57174 14.6313 1.6815 13.9749 1.02513C13.3185 0.368749 12.4283 0 11.5 0C10.5717 0 9.6815 0.368749 9.02513 1.02513C8.36875 1.6815 8 2.57174 8 3.5V4H5C3.67392 4 2.40215 4.52678 1.46447 5.46447C0.526784 6.40215 0 7.67392 0 9V55C0 56.3261 0.526784 57.5979 1.46447 58.5355C2.40215 59.4732 3.67392 60 5 60H49C50.3261 60 51.5979 59.4732 52.5355 58.5355C53.4732 57.5979 54 56.3261 54 55V9C54 7.67392 53.4732 6.40215 52.5355 5.46447C51.5979 4.52678 50.3261 4 49 4ZM41 3.5C41 3.10218 41.158 2.72064 41.4393 2.43934C41.7206 2.15804 42.1022 2 42.5 2C42.8978 2 43.2794 2.15804 43.5607 2.43934C43.842 2.72064 44 3.10218 44 3.5V7.5C44 7.89782 43.842 8.27936 43.5607 8.56066C43.2794 8.84196 42.8978 9 42.5 9C42.1022 9 41.7206 8.84196 41.4393 8.56066C41.158 8.27936 41 7.89782 41 7.5V3.5ZM25.5 3.5C25.5 3.10218 25.658 2.72064 25.9393 2.43934C26.2206 2.15804 26.6022 2 27 2C27.3978 2 27.7794 2.15804 28.0607 2.43934C28.342 2.72064 28.5 3.10218 28.5 3.5V7.5C28.5 7.89782 28.342 8.27936 28.0607 8.56066C27.7794 8.84196 27.3978 9 27 9C26.6022 9 26.2206 8.84196 25.9393 8.56066C25.658 8.27936 25.5 7.89782 25.5 7.5V3.5ZM10 3.5C10 3.10218 10.158 2.72064 10.4393 2.43934C10.7206 2.15804 11.1022 2 11.5 2C11.8978 2 12.2794 2.15804 12.5607 2.43934C12.842 2.72064 13 3.10218 13 3.5V7.5C13 7.89782 12.842 8.27936 12.5607 8.56066C12.2794 8.84196 11.8978 9 11.5 9C11.1022 9 10.7206 8.84196 10.4393 8.56066C10.158 8.27936 10 7.89782 10 7.5V3.5ZM43 52.59V48C43 47.2043 43.3161 46.4413 43.8787 45.8787C44.4413 45.3161 45.2043 45 46 45H50.59L43 52.59ZM52 42C52 42.2652 51.8946 42.5196 51.7071 42.7071C51.5196 42.8946 51.2652 43 51 43H46C44.6739 43 43.4021 43.5268 42.4645 44.4645C41.5268 45.4021 41 46.6739 41 48V53C41 53.2652 40.8946 53.5196 40.7071 53.7071C40.5196 53.8946 40.2652 54 40 54L5 53.94C4.20435 53.94 3.44129 53.6239 2.87868 53.0613C2.31607 52.4987 2 51.7356 2 50.94V18H52V42Z" fill="#C90606"/>
</svg>
