<svg width="53" height="53" viewBox="0 0 53 53" fill="none" xmlns="http://www.w3.org/2000/svg">
<circle cx="26.5" cy="26.5" r="26.5" fill="#C90606"/>
<path d="M38.2464 17.1063C38.5379 17.1063 38.7741 16.8701 38.7741 16.5786C38.7741 16.2872 38.5379 16.051 38.2464 16.051C37.955 16.051 37.7188 16.2872 37.7188 16.5786C37.7188 16.8701 37.955 17.1063 38.2464 17.1063Z" fill="white"/>
<path d="M15.5345 33.3169C15.8259 33.3169 16.0622 33.0806 16.0622 32.7892C16.0622 32.4978 15.8259 32.2615 15.5345 32.2615C15.2431 32.2615 15.0068 32.4978 15.0068 32.7892C15.0068 33.0806 15.2431 33.3169 15.5345 33.3169Z" fill="white"/>
<path d="M41.8411 14.8115C41.4891 13.8196 40.5973 12.6183 38.3626 12.4772C38.3601 12.4767 38.3577 12.4772 38.3553 12.4767C38.3304 12.4752 38.3079 12.4718 38.2835 12.4708C38.2708 12.4704 38.2581 12.4723 38.2454 12.4723C38.2332 12.4723 38.2215 12.4704 38.2093 12.4708C38.1864 12.4718 38.1659 12.4747 38.1434 12.4762C38.139 12.4767 38.1346 12.4767 38.1307 12.4772C35.895 12.6178 35.0032 13.8201 34.6512 14.812C33.7545 17.3367 35.4532 21.3536 37.2228 23.375C35.7862 24.3425 31.3821 25.0903 28.0618 25.6531C21.9546 26.688 18.768 27.3119 18.768 29.1146C18.768 30.9173 21.6822 31.5031 26.8331 32.3817C29.2514 32.7947 33.281 33.4825 33.6671 34.1825C33.0936 35.0206 27.8812 35.8729 24.7488 36.3845C21.8453 36.8595 19.532 37.2548 17.8542 37.7117C19.0233 35.6142 19.7965 32.9031 19.1292 31.0222C18.7729 30.0181 17.8664 28.7973 15.5712 28.6806C15.5585 28.6801 15.5463 28.6826 15.5336 28.6826C15.5214 28.6826 15.5092 28.6801 15.497 28.6806C13.2012 28.7973 12.2948 30.0186 11.9384 31.0227C10.9524 33.8017 13.109 38.3966 15.0445 40.1388C15.0493 40.1432 15.0557 40.1447 15.0611 40.149C15.0733 40.1593 15.0835 40.172 15.0972 40.1818C15.0982 40.1827 15.1001 40.1827 15.1011 40.1837C15.1523 40.2218 15.208 40.2511 15.2661 40.274C15.2749 40.2774 15.2832 40.2799 15.292 40.2833C15.3056 40.2882 15.3193 40.2916 15.333 40.295C15.3984 40.3136 15.4648 40.3262 15.5326 40.3267H15.5336H15.5341C15.5868 40.3267 15.639 40.3199 15.6908 40.3087C15.7074 40.3048 15.723 40.2984 15.7396 40.2931C15.7489 40.2906 15.7581 40.2877 15.7674 40.2843C15.7791 40.2804 15.7908 40.2774 15.8021 40.2735C15.8152 40.2682 15.8284 40.2633 15.8411 40.2574C15.8611 40.2477 15.8792 40.2354 15.8987 40.2247C15.9261 40.2091 15.9524 40.1935 15.9778 40.1739C15.9895 40.1647 16.0017 40.1559 16.0129 40.1451C16.0159 40.1427 16.0198 40.1422 16.0227 40.1393C16.1164 40.0548 16.2106 39.9587 16.3049 39.8615C17.3924 39.0722 21.7452 38.36 24.9835 37.8309C31.471 36.7706 35.1413 36.0794 35.1413 34.2054C35.1413 32.4032 32.2276 31.8179 27.0782 30.9393C24.6594 30.5263 20.6288 29.8385 20.2422 29.1375C20.7767 28.3736 25.2974 27.6072 28.3054 27.0976C34.0811 26.1193 37.7021 25.4032 38.7868 23.8792C40.7091 22.1019 42.8193 17.5656 41.8411 14.8115ZM15.5341 34.7814C14.4353 34.7814 13.5415 33.8876 13.5415 32.7888C13.5415 31.6905 14.4353 30.7972 15.5341 30.7972C16.6324 30.7972 17.5257 31.6905 17.5257 32.7888C17.5257 33.8876 16.6324 34.7814 15.5341 34.7814ZM38.2464 18.5707C37.1476 18.5707 36.2538 17.6769 36.2538 16.5786C36.2538 15.4802 37.1476 14.5865 38.2464 14.5865C39.3447 14.5865 40.238 15.4802 40.238 16.5786C40.238 17.6769 39.3447 18.5707 38.2464 18.5707Z" fill="white"/>
</svg>
