<svg width="359" height="129" viewBox="0 0 359 129" fill="none" xmlns="http://www.w3.org/2000/svg">
<g clip-path="url(#clip0_1_8)">
<path fill-rule="evenodd" clip-rule="evenodd" d="M-45.5313 -11.8977C-31.4009 -23.4016 15.7362 -25.5318 24.4276 -37.8454C35.9511 -54.171 -30.6529 -76.309 0.862552 -87.8353C30.9327 -98.8327 84.2006 -72.3619 124.838 -74.5686C160.273 -76.4928 176.65 -95.2912 211.377 -98.6705C249.738 -102.403 322.287 -116.203 347.4 -104.179C375.144 -90.8966 403.38 -94.1676 417.923 -77.9456C430.234 -64.2125 389.188 -25.5875 401.807 -11.8977C414.924 2.33117 379.456 76.083 359.382 82.1031C331.931 107.07 302.869 105.315 269.447 69.4036C241.768 39.6623 226.022 43.9895 206.092 52.241C167.029 78.1924 157.363 129.693 101.622 90.8654C65.933 56.1517 37.1948 69.4036 13.7785 100.072C-18.4857 150.034 -50.9448 44.772 -58.6954 29.8278C-65.9078 15.9219 -61.2232 0.87734 -45.5313 -11.8977Z" fill="#FD7001"/>
</g>
<g clip-path="url(#clip1_1_8)">
<path fill-rule="evenodd" clip-rule="evenodd" d="M-45.9663 -4.74246C-31.7854 -13.3257 15.52 -14.915 24.2424 -24.1024C35.8071 -36.2832 -31.0348 -52.8007 0.593174 -61.4005C30.7707 -69.6059 84.2289 -49.8556 125.011 -51.5021C160.573 -52.9378 177.008 -66.9635 211.86 -69.4849C250.358 -72.27 323.165 -82.5658 348.369 -73.595C376.212 -63.6846 404.549 -66.1252 419.143 -54.0217C431.498 -43.7753 390.306 -14.9566 402.97 -4.74246C416.133 5.8739 380.539 60.9012 360.393 65.3929C332.844 84.0209 303.678 82.7116 270.137 55.9176C242.359 33.7272 226.557 36.9558 206.556 43.1123C167.353 62.475 157.653 100.9 101.712 71.9305C65.896 46.0302 37.0552 55.9176 13.5552 78.8C-18.8242 116.077 -51.3992 37.5396 -59.1775 26.3895C-66.4156 16.0141 -61.7143 4.78918 -45.9663 -4.74246Z" fill="#005BBA"/>
</g>
<g clip-path="url(#clip2_1_8)">
<path fill-rule="evenodd" clip-rule="evenodd" d="M-46.0698 -20.747C-31.8853 -29.3546 15.4322 -30.9484 24.1569 -40.1618C35.7245 -52.3771 -31.1344 -68.9413 0.501621 -77.5656C30.6869 -85.7941 84.1587 -65.988 124.952 -67.6391C160.522 -69.0788 176.962 -83.1443 211.822 -85.6728C250.33 -88.4659 323.156 -98.7908 348.366 -89.7946C376.216 -79.8561 404.56 -82.3036 419.158 -70.1659C431.517 -59.8904 390.313 -30.9901 402.981 -20.747C416.148 -10.1006 380.544 45.0826 360.393 49.587C332.838 68.2678 303.664 66.9548 270.115 40.0849C242.329 17.8316 226.523 21.0694 206.517 27.2434C167.304 46.6609 157.601 85.1952 101.646 56.1432C65.8211 30.1695 36.973 40.0849 13.467 63.0321C-18.9207 100.415 -51.504 21.6549 -59.2843 10.4732C-66.5243 0.0683697 -61.8218 -11.1884 -46.0698 -20.747Z" fill="#383E4C"/>
</g>
<defs>
<clipPath id="clip0_1_8">
<rect width="113.054" height="357.631" fill="white" transform="matrix(0 1 -1 0 357.723 15.946)"/>
</clipPath>
<clipPath id="clip1_1_8">
<rect width="84.3512" height="358.908" fill="white" transform="matrix(0 1 -1 0 359 15.946)"/>
</clipPath>
<clipPath id="clip2_1_8">
<rect width="84.5902" height="359" fill="white" transform="matrix(0 1 -1 0 359 0)"/>
</clipPath>
</defs>
</svg>
