<svg width="50" height="50" viewBox="0 0 50 50" fill="none" xmlns="http://www.w3.org/2000/svg">
<circle cx="25" cy="25" r="25" fill="#FF7A12"/>
<path d="M17.376 33C17.216 33 17.072 32.944 16.944 32.832C16.832 32.72 16.776 32.576 16.776 32.4V16.8C16.776 16.624 16.832 16.48 16.944 16.368C17.072 16.256 17.216 16.2 17.376 16.2H19.608C19.848 16.2 20.024 16.264 20.136 16.392C20.264 16.52 20.352 16.616 20.4 16.68L24.816 24.816L29.28 16.68C29.312 16.616 29.384 16.52 29.496 16.392C29.624 16.264 29.808 16.2 30.048 16.2H32.28C32.456 16.2 32.6 16.256 32.712 16.368C32.824 16.48 32.88 16.624 32.88 16.8V32.4C32.88 32.576 32.824 32.72 32.712 32.832C32.6 32.944 32.456 33 32.28 33H29.832C29.672 33 29.536 32.944 29.424 32.832C29.312 32.72 29.256 32.576 29.256 32.4V22.704L26.208 28.416C26.128 28.56 26.024 28.688 25.896 28.8C25.768 28.912 25.6 28.968 25.392 28.968H24.264C24.056 28.968 23.888 28.912 23.76 28.8C23.632 28.688 23.528 28.56 23.448 28.416L20.4 22.704V32.4C20.4 32.576 20.344 32.72 20.232 32.832C20.12 32.944 19.984 33 19.824 33H17.376Z" fill="white"/>
</svg>
